# xmcd
#
# Track frame offsets: 
#        187
#        19912
#        36787
#        56587
#
# Disc length: 1015 seconds
#
# Revision: 0
# Processed by: cddbd v1.5.1PL0 Copyright (c) Steve Scherf et al.
# Submitted via: ExactAudioCopy v0.95a5
#
DISCID=2c03f504
DTITLE=Hiroko Shino and Akira Onodera - Kita No Machi Koi No Aji
DYEAR=1992
DGENRE=JPop
TTITLE0=Kita No Machi Koi No Aji
TTITLE1=Kanashimi Wo Toozakete
TTITLE2=Iro Aseta Toki No Mama Ni
TTITLE3=Kita No Machi Koi No Aji (Karaoke)
EXTD=
EXTT0=
EXTT1=
EXTT2=
EXTT3=
PLAYORDER=
